<svg xmlns="http://www.w3.org/2000/svg" width="55" height="55" viewBox="0 0 55 55" fill="none"><path d="M45.8298 0.538967C48.1221 0.538967 50.2868 1.43871 51.9235 3.07321C53.558 4.70992 54.4577 6.87459 54.4577 9.16685V45.832C54.4577 48.1243 53.5602 50.289 51.9235 51.9257C50.2868 53.5624 48.1221 54.4599 45.8298 54.4599H9.16685C6.87458 54.4599 4.70992 53.5624 3.07321 51.9257C1.43651 50.2912 0.538967 48.1243 0.538967 45.832V9.16685C0.538967 6.87459 1.43651 4.70992 3.07321 3.07321C4.70992 1.43871 6.87458 0.538967 9.16685 0.538967H45.8298ZM45.8298 0H9.16685C4.12475 0 0 4.12475 0 9.16685V45.832C0 50.8719 4.12475 54.9967 9.16685 54.9967H45.832C50.8741 54.9967 54.9989 50.8719 54.9989 45.8298V9.16685C54.9967 4.12475 50.8719 0 45.8298 0Z" fill="url(#paint0_linear)"></path><path d="M14.9443 11.9524H30.5348C33.41 11.9524 35.7199 12.608 37.4556 13.9279C39.1913 15.2478 40.0624 17.2343 40.0624 19.9027C40.0624 21.5196 39.6664 22.9055 38.8767 24.0539C38.0847 25.2044 36.954 26.1041 35.4801 26.7311V26.8191C37.4578 27.2415 38.9581 28.1764 39.9722 29.6239C40.9886 31.0802 41.4989 32.8951 41.4989 35.0884C41.4989 36.3467 41.2745 37.5236 40.8258 38.6104C40.377 39.7059 39.6752 40.6519 38.7139 41.4416C37.7526 42.2336 36.5316 42.8627 35.0291 43.3291C33.5288 43.7977 31.7491 44.0309 29.6834 44.0309H14.9443V11.9524ZM20.5606 25.387H29.7274C31.076 25.387 32.1979 25.0086 33.0976 24.2364C33.9974 23.4643 34.4462 22.3666 34.4462 20.9278C34.4462 19.3109 34.0414 18.1692 33.234 17.5137C32.4245 16.8581 31.2564 16.5259 29.7296 16.5259H20.5606V25.387ZM20.5606 39.4507H30.4908C32.1979 39.4507 33.5288 39.0086 34.4638 38.1198C35.4075 37.2399 35.8849 35.9815 35.8849 34.3624C35.8849 32.7719 35.4163 31.5598 34.4638 30.6953C33.5112 29.8329 32.1979 29.4193 30.4908 29.4193H20.5606V39.4507Z" fill="url(#paint1_linear)"></path><defs><linearGradient id="paint0_linear" x1="4.00483" y1="49.4648" x2="68.8731" y2="28.5289" gradientUnits="userSpaceOnUse"><stop stop-color="#E50076"></stop><stop offset="1" stop-color="#4167AF"></stop></linearGradient><linearGradient id="paint1_linear" x1="16.878" y1="40.8042" x2="49.1563" y2="32.1808" gradientUnits="userSpaceOnUse"><stop stop-color="#E50076"></stop><stop offset="1" stop-color="#4167AF"></stop></linearGradient></defs></svg>