<svg xmlns="http://www.w3.org/2000/svg" width="55" height="55" viewBox="0 0 55 55" fill="none"><path d="M27.5 0C12.3428 0 0 12.332 0 27.5C0 42.6572 12.3428 55 27.5 55C42.6572 55 55 42.6572 55 27.5C55 12.332 42.6572 0 27.5 0ZM2.77148 27.5C2.77148 23.9229 3.53418 20.5176 4.90918 17.4453L16.7041 49.7578C8.4541 45.7402 2.77148 37.2861 2.77148 27.5ZM27.5 52.2285C25.0723 52.2285 22.7305 51.874 20.5176 51.2188L27.9297 29.6592L35.5352 50.4883C35.5889 50.6172 35.6426 50.7246 35.707 50.832C33.1396 51.7236 30.3789 52.2285 27.5 52.2285ZM30.9053 15.9199C32.3877 15.8447 33.7305 15.6836 33.7305 15.6836C35.0625 15.5225 34.9014 13.5674 33.5693 13.6426C33.5693 13.6426 29.5625 13.9541 26.9844 13.9541C24.5566 13.9541 20.4746 13.6426 20.4746 13.6426C19.1426 13.5674 18.9922 15.6084 20.3242 15.6836C20.3242 15.6836 21.5918 15.8447 22.9131 15.9199L26.7588 26.4795L21.3447 42.7002L12.3535 15.9092C13.8359 15.834 15.1787 15.6729 15.1787 15.6729C16.5107 15.5117 16.3496 13.5566 15.0176 13.6318C15.0176 13.6318 11.0107 13.9434 8.43262 13.9434C7.9707 13.9434 7.42285 13.9326 6.83203 13.9111C11.2686 7.20801 18.8633 2.77148 27.5 2.77148C33.9346 2.77148 39.7998 5.23144 44.2041 9.25977C44.0967 9.24902 43.9893 9.23828 43.8818 9.23828C41.4541 9.23828 39.7354 11.3545 39.7354 13.6318C39.7354 15.6729 40.9062 17.3916 42.1631 19.4326C43.1084 21.0762 44.2041 23.1924 44.2041 26.2539C44.2041 28.3701 43.3984 30.8193 42.3135 34.2461L39.8535 42.4854L30.9053 15.9199ZM49.1992 15.6406C51.1328 19.1641 52.2285 23.2031 52.2285 27.5107C52.2285 36.6309 47.2871 44.6016 39.9287 48.877L47.4805 27.0273C48.8877 23.5039 49.3711 20.6895 49.3711 18.165C49.3711 17.2627 49.3174 16.4248 49.1992 15.6406Z" fill="url(#paint0_linear)"></path><defs><linearGradient id="paint0_linear" x1="4.00492" y1="49.4678" x2="68.875" y2="28.5322" gradientUnits="userSpaceOnUse"><stop stop-color="#E50076"></stop><stop offset="1" stop-color="#4167AF"></stop></linearGradient></defs></svg>