<?xml version="1.0" encoding="UTF-8"?>
<svg xmlns="http://www.w3.org/2000/svg" xmlns:xlink="http://www.w3.org/1999/xlink" viewBox="0 0 32 32" width="32px" height="32px">
<g id="surface40934991">
<path style="fill-rule:nonzero;fill:rgb(100%,100%,100%);fill-opacity:1;stroke-width:6;stroke-linecap:butt;stroke-linejoin:round;stroke:rgb(63.529414%,26.274511%,51.764709%);stroke-opacity:1;stroke-miterlimit:10;" d="M 139.750866 21.490262 L 128.991999 134.3823 L 85.999998 150.509734 L 43.007998 134.3823 L 32.24913 21.490262 Z M 51.658562 53.74513 L 84.826303 53.74513 L 53.071343 69.872564 L 54.462388 85.999998 L 101.410174 85.999998 L 99.562692 107.778555 L 85.999998 112.364658 L 72.459039 107.669879 L 71.633106 96.758866 L 55.396997 96.758866 L 57.157539 118.254866 L 85.999998 128.991999 L 114.777252 118.254866 L 116.255238 102.127432 L 116.168298 102.170902 L 118.906919 69.872564 L 89.738433 69.872564 L 120.341434 53.74513 L 121.754215 37.617696 L 50.158841 37.617696 Z M 51.658562 53.74513 " transform="matrix(0.179721,0,0,0.179721,0.544,0.544)"/>
<path style=" stroke:none;fill-rule:nonzero;fill:rgb(100%,100%,100%);fill-opacity:1;" d="M 6.339844 4.40625 L 8.273438 24.695312 L 16 27.59375 L 23.726562 24.695312 L 25.660156 4.40625 Z M 9.558594 7.304688 L 22.425781 7.304688 L 22.171875 10.203125 L 16.671875 13.101562 L 21.914062 13.101562 L 21.421875 18.90625 L 21.4375 18.898438 L 21.171875 21.796875 L 16 23.726562 L 10.816406 21.796875 L 10.5 17.933594 L 13.417969 17.933594 L 13.566406 19.894531 L 16 20.738281 L 18.4375 19.914062 L 18.769531 16 L 10.332031 16 L 10.082031 13.101562 L 15.789062 10.203125 L 9.828125 10.203125 Z M 9.558594 7.304688 "/>
</g>
</svg>
