<svg xmlns="http://www.w3.org/2000/svg" width="54" height="57" viewBox="0 0 54 57" fill="none"><path d="M0 0L6.43856 47.0097L27 56.3226L47.5483 47.0097L54 0H0ZM45.0044 45.0843L27 53.2445L8.99563 45.0843L3.19961 2.78993H50.7873L45.0044 45.0843Z" fill="url(#paint0_linear)"></path><path d="M13.572 25.1224H38.264L36.7823 36.1774L26.9998 40.6963L17.2305 36.1905L16.6929 30.6499L13.9129 30.925L14.621 38.0635L26.9998 43.7613L39.3655 38.0635L41.4505 22.3325H15.9454L14.385 12.5612H42.3685V9.77124H11.1067L13.572 25.1224Z" fill="url(#paint1_linear)"></path><defs><linearGradient id="paint0_linear" x1="3.9321" y1="50.6573" x2="68.1118" y2="30.7987" gradientUnits="userSpaceOnUse"><stop stop-color="#E50076"></stop><stop offset="1" stop-color="#4167AF"></stop></linearGradient><linearGradient id="paint1_linear" x1="13.3831" y1="40.3424" x2="50.7988" y2="29.2364" gradientUnits="userSpaceOnUse"><stop stop-color="#E50076"></stop><stop offset="1" stop-color="#4167AF"></stop></linearGradient></defs></svg>