<svg xmlns="http://www.w3.org/2000/svg" width="106" height="56" viewBox="0 0 106 56" fill="none"><path fill-rule="evenodd" clip-rule="evenodd" d="M43.3012 13.676C43.7413 14.2539 43.8293 15.2345 43.5476 16.6354L40.8545 29.8562H46.7336L49.55 16.0225C50.1308 12.9231 49.726 10.8218 48.2826 9.70106C46.8744 8.59787 44.7622 8.0025 41.893 7.94997H36.6828L38.3374 0H32.5463L26.5088 29.8386H32.2999L35.7499 12.7655L40.4145 12.8005C41.893 12.8005 42.8436 13.0982 43.3012 13.676ZM6.00232 7.93237H17.2501C20.5593 7.96739 22.9532 8.91299 24.4493 10.7691C25.9279 12.6253 26.4208 15.1469 25.9103 18.3689C25.7167 19.8398 25.2766 21.2757 24.6078 22.6941C23.9565 24.095 23.0588 25.3733 21.9146 26.5115C20.5241 27.9649 19.0279 28.8755 17.4261 29.2607C15.8419 29.6459 14.1873 29.8386 12.4799 29.8386H7.4457L5.8439 37.736H0L6.00232 7.93237ZM16.2116 24.4102C18.007 23.8148 19.2039 21.801 19.82 18.3339C20.3129 15.4095 19.82 13.746 18.3062 13.3257C16.8276 12.8705 14.9618 12.6603 12.7263 12.6953C12.3919 12.7129 12.0575 12.7304 11.7582 12.7304H10.9133L8.39621 25.1631L8.44022 25.1675L8.44029 25.1675C8.59902 25.1835 8.74546 25.1982 8.90667 25.1982H9.48755C12.1807 25.2332 14.4161 24.9705 16.2116 24.4102ZM105.25 45.3582C105.187 45.2951 105.123 45.2316 105.049 45.1782L104.993 45.1357C104.641 44.8683 104.275 44.5906 103.941 44.4077C103.604 44.1904 103.239 44.0245 102.87 43.8569C102.525 43.7005 102.177 43.5425 101.846 43.3396C101.538 43.1589 101.242 42.934 100.957 42.7176C100.883 42.6614 100.81 42.6057 100.737 42.5516C100.402 42.3064 100.033 41.8336 99.8216 41.4834C99.7668 41.4055 99.7329 41.3172 99.6997 41.2308L99.6997 41.2307C99.6583 41.123 99.6181 41.0183 99.54 40.9406C99.5664 40.6905 99.8017 40.6284 100.029 40.5683C100.104 40.5485 100.178 40.5289 100.244 40.5028C101.159 40.1175 102.215 39.995 103.606 40.03C103.578 39.7516 103.028 39.418 102.661 39.1961L102.661 39.196C102.567 39.1387 102.485 39.0889 102.427 39.0494C102.265 38.939 102.103 38.8244 101.938 38.7087C101.529 38.4205 101.111 38.126 100.684 37.8761C100.488 37.7502 100.187 37.6467 99.9088 37.5509C99.7615 37.5003 99.6205 37.4518 99.5048 37.4033C99.3501 37.335 99.1358 37.2684 98.9079 37.1977L98.9076 37.1976L98.9073 37.1975L98.9072 37.1975C98.435 37.051 97.905 36.8865 97.727 36.6504C97.2529 36.0325 96.9155 35.2786 96.5738 34.5151L96.4948 34.3389C96.3092 33.9051 96.0943 33.4616 95.8784 33.016C95.6848 32.6162 95.4903 32.2148 95.3155 31.8173C95.2452 31.6567 95.189 31.4988 95.1334 31.3426L95.1334 31.3425L95.1334 31.3424C95.0496 31.1071 94.9671 30.8756 94.8402 30.6441C93.5553 28.2101 91.6894 26.1788 89.4187 24.7429C88.6795 24.2876 87.8522 23.8499 86.9368 23.5697C86.6519 23.4846 86.3413 23.471 86.0272 23.4572C85.7593 23.4454 85.4888 23.4335 85.2294 23.3771H84.8774C84.6758 23.3102 84.5028 23.1584 84.3356 23.0116C84.2399 22.9277 84.1462 22.8454 84.0501 22.7817C83.5044 22.4315 82.9764 22.1863 82.3427 21.9237C82.0963 21.8186 81.4626 21.591 81.2337 21.7661C81.1105 21.8011 81.0401 21.8536 81.0049 21.9937C80.8641 22.1863 80.9873 22.5015 81.0753 22.6941C81.257 23.0677 81.4804 23.3417 81.711 23.6246L81.711 23.6247C81.8155 23.7529 81.9215 23.883 82.0258 24.025C82.0835 24.1074 82.1449 24.1928 82.2078 24.2804L82.2083 24.2811L82.2084 24.2812L82.2084 24.2813C82.4527 24.6212 82.7205 24.994 82.8884 25.3558C83.129 25.8623 83.2967 26.4027 83.463 26.9389C83.613 27.4221 83.7618 27.9019 83.9621 28.3502C84.1205 28.7179 84.3669 29.1382 84.5958 29.4534C84.6661 29.5488 84.755 29.635 84.8448 29.722L84.8449 29.722C85.0022 29.8745 85.1622 30.0295 85.2294 30.2414C85.3991 30.5087 85.0916 31.2959 84.9003 31.7858C84.8535 31.9057 84.8136 32.0077 84.7894 32.08C84.3317 33.4984 84.4373 35.4596 84.9478 36.6854C84.9677 36.73 84.9875 36.7754 85.0074 36.8211C85.1987 37.2602 85.4041 37.7318 85.8983 37.8586L85.9155 37.847L85.9192 37.8444L85.9282 37.8383C85.9308 37.8367 85.9327 37.8356 85.9348 37.8349C85.9415 37.8323 85.9494 37.8328 85.9863 37.8236C86.013 37.6189 86.0356 37.4166 86.0577 37.2177C86.138 36.4978 86.2134 35.8219 86.4616 35.232C86.5819 34.9492 86.7701 34.7204 86.9587 34.4912C87.0737 34.3513 87.1889 34.2113 87.2889 34.0587C87.4211 34.1305 87.4631 34.3003 87.5044 34.4677C87.5236 34.5454 87.5426 34.6225 87.5705 34.6891C87.6607 34.8813 87.7484 35.0828 87.8373 35.2868L87.8374 35.287L87.8375 35.2873C87.9916 35.641 88.1489 36.0021 88.3274 36.3352C88.9083 37.4559 89.542 38.5065 90.2636 39.4871C90.5277 39.8199 90.8621 40.2051 91.179 40.5028C91.2261 40.5497 91.2785 40.5889 91.331 40.6283L91.3311 40.6284C91.4158 40.6919 91.5011 40.7558 91.5662 40.853H91.6014V40.888C91.2529 40.7724 90.9887 40.5043 90.7329 40.2447C90.6012 40.111 90.4717 39.9795 90.3341 39.8724C89.542 39.277 88.609 38.4015 88.081 37.5609C87.9666 37.3245 87.8477 37.0881 87.7289 36.8517C87.6101 36.6153 87.4913 36.3789 87.3769 36.1426V36.1075C87.3101 36.1961 87.2996 36.2847 87.2876 36.3866C87.2806 36.4459 87.2731 36.5095 87.2537 36.5803C87.1876 36.8283 87.1552 37.0865 87.124 37.3359C87.0472 37.9496 86.9771 38.5101 86.4264 38.7342C85.5463 39.1019 84.895 38.1563 84.6134 37.7185C83.7157 36.2826 83.4868 33.8836 84.1029 31.9399C84.1428 31.8038 84.1716 31.6549 84.2007 31.5043L84.2008 31.5042L84.2008 31.504L84.2009 31.5038C84.2616 31.1897 84.3236 30.8689 84.4902 30.6441C84.4549 30.4337 84.3333 30.3247 84.2145 30.2182C84.1554 30.1652 84.0969 30.1128 84.0501 30.0487C83.8037 29.716 83.61 29.3483 83.4164 28.9806C83.1261 28.4304 82.9009 27.7938 82.6812 27.1726C82.6211 27.003 82.5615 26.8344 82.5011 26.6691C82.4455 26.5269 82.4114 26.3882 82.3778 26.2515C82.3369 26.0853 82.2968 25.9219 82.2195 25.7586C82.0795 25.4294 81.8382 25.1093 81.6089 24.8051C81.5211 24.6885 81.435 24.5743 81.357 24.4627C81.2957 24.3815 81.2193 24.2889 81.1349 24.1865C80.6365 23.5822 79.8567 22.6368 80.248 21.6785C80.9697 19.8924 83.522 21.2407 84.5078 21.8711C84.6075 21.9349 84.713 22.0274 84.8207 22.1218C84.9792 22.2607 85.1427 22.4039 85.2999 22.4665C85.5199 22.4753 85.7355 22.4884 85.9511 22.5015C86.1668 22.5147 86.3824 22.5278 86.6024 22.5365C86.7206 22.5647 86.838 22.5917 86.9544 22.6184C87.6352 22.7749 88.2791 22.9229 88.8203 23.237C91.8126 24.9706 93.7489 26.7392 95.5443 29.681C95.7903 30.0889 95.9583 30.52 96.1314 30.964C96.2184 31.1873 96.3067 31.4138 96.4068 31.6422C96.8469 32.6404 97.3397 33.691 97.8326 34.6366C97.8981 34.767 97.9593 34.9003 98.0203 35.0332L98.0205 35.0334C98.1724 35.3643 98.3232 35.6926 98.5367 35.9674C98.6146 36.0671 98.7839 36.1247 98.9468 36.1802C99.0417 36.2125 99.1343 36.244 99.2055 36.2826C99.4077 36.3801 99.6227 36.4713 99.84 36.5635C100.247 36.7361 100.663 36.9123 101.019 37.1407C102.022 37.7536 102.99 38.5065 103.87 39.2595C104.055 39.4145 104.202 39.6123 104.351 39.8115C104.471 39.9724 104.591 40.1343 104.733 40.2751V40.4327C104.592 40.4678 104.455 40.5072 104.319 40.5466C104.183 40.586 104.046 40.6254 103.905 40.6604C103.599 40.7388 103.314 40.7695 103.032 40.8C102.746 40.8308 102.463 40.8613 102.163 40.9406L102.068 40.9689C101.734 41.0694 101.337 41.1888 100.983 41.2207L101.019 41.2558C101.187 41.7192 101.878 42.1259 102.45 42.4618C102.655 42.5829 102.845 42.6947 102.99 42.7967C103.659 43.287 104.293 43.8649 104.803 44.5303L105.313 45.0381C105.375 45.1169 105.415 45.2132 105.454 45.3095C105.494 45.4058 105.534 45.5022 105.595 45.581V45.616C105.453 45.5618 105.352 45.4606 105.25 45.3582ZM48.5996 43.5671C49.1276 42.4114 50.2718 41.9561 51.9968 42.4814C52.7008 42.7091 53.0529 43.1293 53.0353 43.9874V52.8479H50.7822V43.9699L47.2794 51.7097C46.8745 52.6378 46.3289 52.9705 45.2199 52.9705C44.111 52.9705 43.5301 52.6553 43.1253 51.7097L39.6225 43.9699V52.8479H37.3694V43.9874C37.3694 43.1118 37.7214 42.6916 38.4431 42.4814C40.1681 41.9561 41.3475 42.4114 41.8403 43.5671L45.1671 51.2019L48.5996 43.5671ZM63.4381 51.4298V45.5986H65.7087C65.7253 45.5986 65.7107 52.6182 65.7089 53.4943L65.7087 53.5836C65.7263 55.5448 63.262 55.9651 62.1355 56.0001H55.0067V54.4942H62.1531C63.4886 54.3501 63.4562 53.7378 63.4408 53.4465C63.4394 53.4191 63.4381 53.3945 63.4381 53.3735V52.7781H58.6327C56.3972 52.7606 54.9715 51.7975 54.9539 50.6768C54.9539 50.6643 54.9546 50.5835 54.9558 50.451C54.965 49.4738 55.0004 45.6799 54.9539 45.6337H57.2069V50.5192C57.1893 50.7819 57.2949 51.4123 58.5271 51.4298C59.113 51.446 62.7844 51.4322 63.3619 51.4301L63.4381 51.4298ZM69.405 42.6566C68.0497 43.0768 67.4688 43.7422 67.4688 44.898V46.2113C67.4688 47.2269 68.6129 48.0849 70.5492 48.2951C70.7604 48.3126 70.9892 48.3301 71.2004 48.3301H73.5415C73.6295 48.3301 73.7176 48.3301 73.788 48.3476C74.5097 48.4001 74.8089 48.5402 75.0201 48.8029C75.1433 48.9255 75.1961 49.0656 75.1961 49.2056V50.519C75.1961 50.6766 75.0905 50.8867 74.8617 51.0443C74.6681 51.2194 74.3336 51.3245 73.9112 51.3595C73.8672 51.3595 73.8276 51.3639 73.788 51.3682C73.7484 51.3726 73.7088 51.377 73.6647 51.377H67.4336V52.8829H73.9288C74.6857 52.8829 75.425 52.7253 76.0234 52.4452C77.0091 51.9899 77.4844 51.3945 77.4844 50.6065V48.9605C77.4844 48.3126 76.9387 47.6997 75.8826 47.297C75.3193 47.0868 74.6153 46.9642 73.9464 46.9642H71.2004C70.2851 46.9642 69.8451 46.6841 69.7395 46.0887C69.7219 46.0187 69.7219 45.9661 69.7219 45.8786V44.8629C69.7219 44.8104 69.7219 44.7404 69.7395 44.6703C69.8451 44.215 70.0915 44.0749 70.8836 44.0049C70.9213 44.0049 70.9641 43.9999 71.0038 43.9952C71.0382 43.9912 71.0703 43.9874 71.0948 43.9874H77.5548V42.4814H71.2004C70.3027 42.4814 69.8275 42.534 69.405 42.6566ZM93.8368 42.4641V50.2215C93.8368 51.027 94.3473 51.3597 95.685 51.3422H101.617V52.8481H95.7202C95.509 52.8481 95.2802 52.8306 95.069 52.8131C92.7279 52.638 91.5837 51.7799 91.5837 50.239V42.4641H93.8368ZM90.1579 50.3265V44.9856C90.1579 43.6198 89.2074 42.7968 87.3064 42.5516C87.0951 42.5166 86.8839 42.5166 86.6727 42.5166H82.3778C82.1842 42.5166 81.9553 42.5341 81.7617 42.5516C79.8607 42.8143 78.9102 43.6373 78.9102 44.9856V50.3265C78.9102 51.5697 79.6142 52.3227 81.04 52.708C81.5153 52.8305 81.9553 52.9006 82.3602 52.9006H84.7717L86.5847 52.778L88.3801 54.389H91.0028L88.785 52.3928C89.7531 52.0075 90.1579 51.4297 90.1579 50.3265ZM88.0457 50.2389C88.0457 50.309 88.0457 50.379 88.0281 50.4491C87.9577 50.7642 87.764 51.0094 87.4472 51.167L85.8102 49.6961H83.1875L85.0709 51.3946H83.0115C82.1137 51.3946 81.5329 51.0444 81.3921 50.4315L81.3831 50.3879C81.3689 50.3199 81.3569 50.2619 81.3569 50.2039V45.1257C81.3569 44.4428 82.0081 44.005 83.0115 44.005H86.4263C87.2888 44.005 87.8872 44.3377 88.0105 44.9156C88.0281 44.9856 88.0281 45.0557 88.0281 45.1257V50.2389H88.0457ZM85.9336 25.0056C85.6519 25.0056 85.4407 25.0406 85.2295 25.0757V25.1107H85.2647C85.3501 25.2807 85.4745 25.4185 85.5945 25.5514C85.6722 25.6375 85.7481 25.7216 85.8104 25.8111C85.872 25.9511 85.9379 26.0868 86.0039 26.2225L86.004 26.2225L86.004 26.2226L86.004 26.2226C86.07 26.3583 86.136 26.494 86.1976 26.6341L86.2328 26.5991C86.4793 26.424 86.5849 26.1613 86.5849 25.7411C86.5256 25.6821 86.4996 25.6176 86.4726 25.5506C86.4515 25.4984 86.4298 25.4446 86.3912 25.3909C86.3294 25.2985 86.2313 25.2303 86.1323 25.1614C86.0623 25.1127 85.9919 25.0637 85.9336 25.0056ZM104.398 50.3613C104.873 50.3613 105.12 50.5189 105.12 50.9042C105.12 51.2544 104.909 51.3945 104.592 51.4295L105.137 52.2525H104.768L104.275 51.4295H103.976V52.2525H103.659V50.3613H104.398ZM103.993 50.624V51.1668H104.345C104.574 51.1668 104.785 51.1493 104.785 50.8867C104.785 50.659 104.557 50.624 104.363 50.624H103.993ZM104.328 49.6609C103.448 49.6609 102.656 50.3263 102.656 51.3244C102.656 52.3225 103.448 52.988 104.328 52.988C105.208 52.988 106 52.3225 106 51.3244C106 50.3263 105.208 49.6609 104.328 49.6609ZM104.328 52.6202C103.606 52.6202 103.043 52.0599 103.043 51.3069C103.043 50.5539 103.606 49.9936 104.328 49.9936C105.049 49.9936 105.613 50.5539 105.613 51.3069C105.63 52.0599 105.049 52.6202 104.328 52.6202ZM74.3866 22.6942C73.7353 24.0951 72.8376 25.3733 71.6934 26.5116C70.2853 27.9475 68.7891 28.8755 67.2225 29.2783C65.6383 29.6635 63.9837 29.8562 62.2763 29.8562H57.2421L55.6403 37.7536H49.7964L55.7987 7.94995H67.0465C70.3557 7.96746 72.7496 8.91305 74.2281 10.7692C75.7067 12.6254 76.1996 15.147 75.6891 18.369C75.4955 19.8399 75.0554 21.2758 74.3866 22.6942ZM65.9727 24.4102C67.7682 23.8149 68.9651 21.8011 69.5812 18.3339C70.0916 15.4096 69.5812 13.7461 68.0674 13.3258C66.5888 12.8705 64.723 12.6604 62.4875 12.6954C62.1531 12.7129 61.8186 12.7304 61.5194 12.7304H60.6745L58.1574 25.1632C58.1722 25.1647 58.1868 25.1662 58.2013 25.1676C58.3601 25.1835 58.5066 25.1982 58.6679 25.1982H59.2487C61.9419 25.2333 64.1773 24.9706 65.9727 24.4102Z" fill="url(#paint0_linear)"></path><defs><linearGradient id="paint0_linear" x1="7.71856" y1="50.3673" x2="108.248" y2="-11.044" gradientUnits="userSpaceOnUse"><stop stop-color="#E50076"></stop><stop offset="1" stop-color="#4167AF"></stop></linearGradient></defs></svg>