<svg xmlns="http://www.w3.org/2000/svg" width="66" height="55" viewBox="0 0 66 55" fill="none"><path d="M56.4299 32.1982C55.3888 32.5864 55.4288 32.5998 54.8816 31.5959C54.1876 30.3242 53.8139 28.9856 53.7738 27.5265C53.7471 26.2682 54.0942 25.1169 54.5213 23.9657C54.8683 23.0555 54.4145 22.7342 53.6404 22.6539C53.0664 22.6003 52.4792 22.6003 51.9052 22.6539C50.4237 22.8011 50.2769 22.935 49.8765 24.3807C49.6362 25.2374 49.4494 26.1075 49.0623 26.9241C48.1013 28.932 47.0069 30.8596 45.8991 32.7872C45.6989 33.1353 45.5387 33.5101 45.2451 33.8046C44.4309 32.5864 44.1239 31.2478 44.0572 29.8289C43.9905 28.4367 44.4176 27.1383 44.8847 25.8666C45.0449 25.4382 44.9114 25.1705 44.5377 24.9831C44.3775 24.9028 44.1907 24.8224 44.0038 24.8091C43.0562 24.7287 42.0952 24.7421 41.1742 25.0098C40.7605 25.1303 40.4802 25.3579 40.3868 25.8264C40.1999 26.7501 39.9196 27.6469 39.5459 28.5036C38.4915 30.8864 37.4371 33.2825 36.3693 35.6653C35.4484 37.7401 34.5408 39.815 33.4463 41.8095C33.3662 41.9568 33.2995 42.1978 33.1126 42.1442C32.9124 42.0907 32.9792 41.8497 32.9792 41.6891C32.9124 40.5111 33.2328 39.4 33.513 38.2756C33.9401 36.4952 34.4206 34.7282 34.8744 32.9613C35.0079 32.4526 34.781 32.1179 34.3672 31.8636C33.7666 31.5155 33.166 31.5022 32.512 31.9841C32.6054 31.2612 32.6455 30.6321 32.6054 29.9895C32.5387 28.5706 31.8847 27.6603 30.7502 27.4461C29.9227 27.2855 29.1352 27.5265 28.3878 27.8879C26.6527 28.7044 25.2646 29.9494 24.1034 31.4486C23.9699 31.6226 23.8231 31.7833 23.6362 31.8904C21.4473 33.0951 19.2451 34.2865 17.0562 35.4913C16.8159 35.6251 16.6558 35.585 16.4822 35.3976C15.3744 34.2062 14.1065 33.229 12.8385 32.2384C11.0633 30.8462 9.23481 29.5344 7.71325 27.8611C6.819 26.8839 6.07156 25.813 5.69785 24.5146C5.08388 22.3995 5.55103 20.4184 6.55206 18.5443C7.75329 16.3222 9.52844 14.6088 11.4905 13.0961C14.6003 10.6732 18.0171 8.75898 21.6075 7.16602C25.6383 5.39904 29.8159 4.26121 34.2605 4.43523C36.0223 4.50216 37.7307 4.81005 39.3056 5.68015C40.4135 6.29592 41.1475 7.17941 41.3611 8.47787C41.6013 10.0039 41.241 11.4094 40.5736 12.7347C39.0654 15.7064 36.6763 17.8214 33.8467 19.468C31.4976 20.8467 28.9484 21.7168 26.2656 22.172C24.7841 22.4263 23.2892 22.5736 21.7944 22.346C20.0859 22.0783 18.4976 21.516 17.3231 20.1239C17.1896 19.9632 17.0161 19.8562 16.7892 19.9632C16.549 20.0837 16.5757 20.2845 16.589 20.4853C16.6024 20.6192 16.6424 20.7664 16.6958 20.9003C17.0161 21.7436 17.6034 22.3861 18.2841 22.9484C20.0726 24.4075 22.1948 24.8358 24.4104 24.876C26.5859 24.9161 28.7348 24.6484 30.857 24.1397C35.6352 22.9885 39.6527 20.6326 42.5757 16.6033C44.3241 14.1938 45.4319 11.5299 45.3385 8.49125C45.2718 6.56364 44.6311 4.86359 43.2297 3.47142C41.5613 1.82492 39.4925 0.994973 37.2769 0.499683C34.8077 -0.0491518 32.3118 -0.129469 29.7892 0.178414C27.6003 0.446138 25.4514 0.887883 23.3693 1.61074C20.1794 2.70841 17.0962 4.0738 14.1465 5.72031C11.1167 7.40697 8.27382 9.33459 5.77793 11.7575C3.56232 13.8993 1.66705 16.2553 0.599283 19.2002C0.145485 20.4585 -0.188191 21.7436 0.118791 23.109C0.505854 24.8626 1.37341 26.3752 2.49456 27.7406C4.20298 29.8021 6.29846 31.4352 8.46068 32.988C10.1958 34.2329 12.011 35.3708 13.6794 36.7228C14.1465 37.0976 14.1465 37.0976 13.5993 37.3921C12.9453 37.7268 12.2913 38.0614 11.6506 38.4228C9.07464 39.8819 6.5921 41.4615 4.55 43.6702C3.54898 44.7545 2.86828 45.9727 2.54795 47.3247C0.666018 53.1878 5.73789 53.991 8.39394 54.0178C12.1845 53.7233 15.0941 51.7421 17.243 48.4625C18.2841 46.8829 18.7646 45.0892 18.9514 43.2017C19.1116 41.5418 18.9381 39.9221 18.4576 38.3425C18.3775 38.0614 18.0572 37.7803 18.1773 37.5393C18.2974 37.3118 18.6445 37.2047 18.8981 37.0441C19.9391 36.4417 20.9668 35.8527 22.0346 35.2369C22.0746 35.4645 21.9946 35.5983 21.9545 35.7456C21.3406 37.9945 20.9135 40.2567 21.3806 42.5993C21.6742 44.0584 22.1547 45.4238 23.0623 46.6286C24.01 47.8735 26.1054 47.7263 26.9597 46.5884C27.7738 45.5175 28.3077 44.2994 28.8683 43.0946C29.1753 42.4387 29.4555 41.7694 29.7492 41.1001C29.6958 41.9033 29.6958 42.6797 29.7225 43.4694C29.7492 44.2325 29.8693 44.9955 30.2697 45.6782C30.7502 46.4947 31.6578 46.7357 32.4853 46.2939C33.3662 45.8388 33.9668 45.0758 34.434 44.2592C36.4494 40.7253 38.3046 37.111 39.8529 33.3361C40.1866 32.5329 40.5202 31.7297 40.8939 30.8462C40.9473 31.1407 40.9874 31.3148 41.0274 31.5022C41.3744 33.2959 41.9751 34.996 42.8693 36.6023C43.0562 36.9504 43.0428 37.1779 42.8026 37.5126C41.9884 38.6236 41.0941 39.6678 40.2132 40.7253C39.4792 41.6088 38.6783 42.4655 38.0644 43.4427C37.5038 44.3262 37.8241 45.223 38.7584 45.4238C39.0521 45.4908 39.3457 45.5041 39.6393 45.5041C41.2677 45.4908 42.7759 44.9955 44.1773 44.1923C46.0592 43.108 47.1804 41.5284 47.127 39.2796C47.1003 38.2622 46.8334 37.2716 46.4196 36.3346C46.3262 36.1204 46.3262 35.9732 46.4597 35.7858C47.7677 33.9117 48.9155 31.9439 49.9833 29.9092C50.1701 29.5478 50.3036 29.1596 50.6106 28.8115C50.6506 28.9588 50.6773 29.0391 50.704 29.1328C51.0377 30.8061 51.4915 32.4526 52.3457 33.9518C52.5859 34.3668 52.4658 34.5676 52.1455 34.8487C51.0377 35.7991 50.09 36.9102 49.356 38.1685C48.782 39.1591 48.3816 40.2166 48.395 41.3678C48.395 42.6529 49.3826 43.4159 50.6373 43.108C51.9453 42.8001 53.1465 42.2647 54.241 41.4615C56.6034 39.7213 57.2974 37.9008 56.5633 35.344C56.2697 34.34 56.2831 34.3534 57.2841 34.0455C59.4863 33.3762 61.7153 33.3495 63.9576 33.7243C64.2112 33.7644 64.4648 33.818 64.705 33.8715C64.8385 33.0683 64.9453 32.2652 65.012 31.4486C62.1157 30.7525 59.2594 31.1273 56.4299 32.1982ZM9.95555 50.1893C9.31489 50.4169 8.66088 50.5106 7.98019 50.457C7.13932 50.3901 6.60544 49.7877 6.55206 48.8909C6.48532 47.8601 6.7923 46.9231 7.2461 46.0128C8.07362 44.3663 9.44836 43.2419 10.8498 42.1442C12.2112 41.0733 13.6927 40.163 15.1742 39.2662C15.628 38.9984 15.628 38.9984 15.7348 39.5339C15.8683 40.23 15.9884 40.9127 15.9484 41.5418C16.0551 45.3301 13.3323 48.9979 9.95555 50.1893ZM30.4165 31.2077C30.1763 32.8006 29.6558 34.3133 29.1085 35.7991C28.3611 37.8338 27.627 39.8819 26.6794 41.8497C26.4658 42.3048 26.2389 42.7466 25.8919 43.1214C25.5582 43.4694 25.2646 43.4293 25.0377 43.0009C24.5972 42.171 24.6506 41.2473 24.5705 40.578C24.5972 37.2047 25.7184 34.4605 27.5736 31.9841C28.0941 31.288 28.7615 30.7391 29.6291 30.5116C30.243 30.3509 30.51 30.5919 30.4165 31.2077ZM43.4165 41.167C42.7759 42.2647 41.8683 43.0679 40.7338 43.6435C40.6137 43.697 40.4535 43.8041 40.3467 43.6702C40.2399 43.5364 40.4134 43.4427 40.4802 43.3624C41.6013 42.1442 42.6958 40.8993 43.6968 39.5741C43.7102 39.5473 43.7502 39.5473 43.8303 39.5205C43.8436 40.1363 43.7102 40.6717 43.4165 41.167ZM51.1311 41.1269C50.9709 41.2072 50.7707 41.3544 50.6106 41.2206C50.4371 41.0867 50.5038 40.8324 50.5572 40.645C50.8108 39.7882 51.1578 38.9717 51.6249 38.2087C52.0254 37.5661 52.5059 37.0039 53.0531 36.4818C53.2666 36.2677 53.3734 36.2944 53.4401 36.6023C53.5202 36.9102 53.5202 37.2181 53.5336 37.5393C53.5202 39.2662 52.6527 40.4174 51.1311 41.1269Z" fill="url(#paint0_linear)"></path><defs><linearGradient id="paint0_linear" x1="4.73396" y1="48.5844" x2="78.3005" y2="20.0099" gradientUnits="userSpaceOnUse"><stop stop-color="#E50076"></stop><stop offset="1" stop-color="#4167AF"></stop></linearGradient></defs></svg>