<?xml version="1.0" encoding="UTF-8"?>
<svg xmlns="http://www.w3.org/2000/svg" xmlns:xlink="http://www.w3.org/1999/xlink" viewBox="0 0 96 96" width="96px" height="96px">
<g id="surface9042896">
<path style=" stroke:none;fill-rule:nonzero;fill:rgb(40.000001%,24.313726%,59.607846%);fill-opacity:1;" d="M 88 48 C 88 70.089844 70.089844 88 48 88 C 25.910156 88 8 70.089844 8 48 C 8 25.910156 25.910156 8 48 8 C 70.089844 8 88 25.910156 88 48 Z M 88 48 "/>
<path style=" stroke:none;fill-rule:nonzero;fill:rgb(100%,100%,100%);fill-opacity:1;" d="M 58 62 L 28 62 C 24.6875 62 22 59.3125 22 56 L 22 34 L 52 34 C 55.3125 34 58 36.6875 58 40 Z M 58 62 "/>
<path style=" stroke:none;fill-rule:nonzero;fill:rgb(100%,100%,100%);fill-opacity:1;" d="M 74 62 L 62 54 L 62 42 L 74 34 Z M 74 62 "/>
</g>
</svg>
