<svg xmlns="http://www.w3.org/2000/svg" width="406" height="334" viewBox="0 0 406 334" fill="none"><path d="M396.053 40.1307C387.473 22.4029 371.196 7.52461 351.689 4.71287C328.106 1.32113 305.709 15.4807 287.603 30.9642C269.496 46.4476 252.172 64.4276 229.372 71.312C188.591 83.6559 146.384 56.6859 103.774 56.4085C89.8283 56.4049 76.0294 59.2533 63.2265 64.7784C50.4237 70.3035 38.8878 78.3884 29.329 88.5355C-41.255 164.389 29.1397 286.126 110.007 319.539C175.304 346.522 253.522 331.278 310.63 289.745C365.127 250.129 398.69 180.592 404.923 113.513C405.411 108.243 405.731 102.993 405.882 97.765C406.488 78.0955 404.645 57.8459 396.053 40.1307Z" fill="url(#paint0_linear)"></path><path d="M23.5247 49.3223C54.4636 55.261 60.9113 8.77269 32.4833 1.04356C2.37727 -7.05122 -7.38892 43.3331 23.5247 49.3223Z" fill="url(#paint1_linear)"></path><path d="M272.398 269.495C272.398 269.495 254.002 267.301 254.292 237.633C249.696 230.943 243.951 225.12 237.321 220.435V216.829C237.321 216.829 236.501 217.598 235.201 218.959C233.182 217.598 231.82 216.829 231.82 216.829L232.337 222.049C228.004 226.964 224.02 232.176 220.413 237.646C220.703 267.314 202.294 269.508 202.294 269.508L237.321 270.529V270.693L272.398 269.495Z" fill="#DEECF8"></path><g style="mix-blend-mode:multiply" opacity="0.62"><g style="mix-blend-mode:multiply" opacity="0.62"><path d="M218.912 251.326C224.453 248.143 230.702 246.392 237.091 246.232C243.481 246.071 249.809 247.506 255.504 250.406C254.573 246.214 254.15 241.926 254.242 237.633C254.103 237.419 253.952 237.23 253.8 237.015C232.085 233.951 258.204 229.652 230.52 234.216L221.764 235.653C221.322 236.296 220.868 236.914 220.426 237.633C220.525 242.244 220.016 246.848 218.912 251.326V251.326Z" fill="#DEECF8"></path></g></g><path d="M375.069 245.249H99.5342C96.7934 245.249 94.1649 244.161 92.2269 242.224C90.289 240.288 89.2002 237.661 89.2002 234.922V74.5272C89.3778 71.8468 90.5236 69.3221 92.4245 67.4226C94.3253 65.5231 96.8518 64.3782 99.5342 64.2007H374.287C379.99 64.2007 385.403 69.1181 385.403 74.8172V234.948C385.396 237.682 384.305 240.302 382.367 242.233C380.43 244.164 377.805 245.249 375.069 245.249V245.249Z" fill="#FFFFF8"></path><path d="M374.426 64.2007H100.216C98.773 64.199 97.3442 64.4816 96.0109 65.0321C94.6776 65.5826 93.466 66.3904 92.4453 67.4091C91.4246 68.4279 90.6149 69.6378 90.0624 70.9695C89.5099 72.3012 89.2256 73.7287 89.2256 75.1703V212.668H385.403V75.2333C385.413 73.787 385.137 72.353 384.589 71.0141C384.042 69.6752 383.235 68.4578 382.214 67.4321C381.194 66.4065 379.98 65.5929 378.643 65.0383C377.307 64.4837 375.873 64.199 374.426 64.2007V64.2007Z" fill="#F9F9FF"></path><path d="M201.978 268.02H272.638C273.187 268.02 273.713 268.238 274.101 268.626C274.489 269.014 274.707 269.539 274.707 270.088V271.059H199.896V270.088C199.896 269.815 199.95 269.545 200.055 269.294C200.16 269.042 200.314 268.813 200.507 268.621C200.701 268.429 200.93 268.277 201.183 268.174C201.435 268.071 201.706 268.018 201.978 268.02V268.02Z" fill="#FFFFF8"></path><path d="M373.025 77.1245H103.647V200.11H373.025V77.1245Z" fill="#CFDBF4"></path><path d="M358.15 102.077H238.785V180.755H358.15V102.077Z" fill="white"></path><path d="M347.222 108.823H325.154C322.986 108.823 321.229 110.578 321.229 112.744V134.797C321.229 136.962 322.986 138.718 325.154 138.718H347.222C349.389 138.718 351.146 136.962 351.146 134.797V112.744C351.146 110.578 349.389 108.823 347.222 108.823Z" fill="#DBE5FF"></path><path d="M310.731 108.823H288.662C286.495 108.823 284.738 110.578 284.738 112.744V134.797C284.738 136.962 286.495 138.718 288.662 138.718H310.731C312.898 138.718 314.655 136.962 314.655 134.797V112.744C314.655 110.578 312.898 108.823 310.731 108.823Z" fill="#DBE5FF"></path><path d="M379.208 82.6597H294.315V128.114H379.208V82.6597Z" fill="white"></path><path d="M340.055 117.182H298.467V118.065H340.055V117.182Z" fill="#2F54A2"></path><path d="M340.055 120.095H298.467V120.977H340.055V120.095Z" fill="#2F54A2"></path><path d="M340.055 123.02H298.467V123.903H340.055V123.02Z" fill="#2F54A2"></path><path d="M326.933 112.429H298.467V115.203H326.933V112.429Z" fill="#0025B4"></path><path d="M343.446 104.435C346.474 101.409 346.474 96.5039 343.446 93.4783C340.419 90.4528 335.51 90.4528 332.482 93.4783C329.454 96.5039 329.454 101.409 332.482 104.435C335.51 107.46 340.419 107.46 343.446 104.435Z" fill="#2F54A2"></path><path d="M337.22 102.815L341.328 99.7482C341.446 99.6616 341.542 99.5489 341.608 99.4189C341.674 99.289 341.708 99.1455 341.708 99C341.708 98.8545 341.674 98.711 341.608 98.5811C341.542 98.4511 341.446 98.3383 341.328 98.2518L337.22 95.1904C337.08 95.085 336.913 95.0205 336.739 95.0041C336.564 94.9878 336.388 95.0201 336.231 95.0976C336.074 95.1751 335.942 95.2946 335.849 95.4427C335.757 95.5908 335.708 95.7616 335.708 95.9359V102.064C335.709 102.238 335.758 102.408 335.851 102.556C335.943 102.704 336.075 102.823 336.232 102.901C336.388 102.978 336.563 103.012 336.738 102.996C336.912 102.981 337.079 102.918 337.22 102.815V102.815Z" fill="#E9F2FF"></path><path d="M274.241 108.823H252.172C250.005 108.823 248.248 110.578 248.248 112.744V134.797C248.248 136.962 250.005 138.718 252.172 138.718H274.241C276.408 138.718 278.165 136.962 278.165 134.797V112.744C278.165 110.578 276.408 108.823 274.241 108.823Z" fill="#DBE5FF"></path><path d="M347.222 145.161H325.154C322.986 145.161 321.229 146.917 321.229 149.082V171.135C321.229 173.301 322.986 175.056 325.154 175.056H347.222C349.389 175.056 351.146 173.301 351.146 171.135V149.082C351.146 146.917 349.389 145.161 347.222 145.161Z" fill="#DBE5FF"></path><path d="M310.731 145.161H288.662C286.495 145.161 284.738 146.917 284.738 149.082V171.135C284.738 173.301 286.495 175.056 288.662 175.056H310.731C312.898 175.056 314.655 173.301 314.655 171.135V149.082C314.655 146.917 312.898 145.161 310.731 145.161Z" fill="#9FC945"></path><path d="M297.078 168.336C296.764 168.337 296.452 168.276 296.161 168.154C295.871 168.033 295.608 167.855 295.388 167.63L289.773 162.031C289.376 161.574 289.168 160.983 289.19 160.378C289.212 159.773 289.462 159.198 289.891 158.77C290.319 158.342 290.894 158.092 291.499 158.07C292.105 158.048 292.696 158.256 293.154 158.652L297.078 162.574L306.794 152.852C307.01 152.603 307.274 152.401 307.571 152.259C307.868 152.117 308.192 152.037 308.521 152.025C308.85 152.014 309.178 152.07 309.485 152.19C309.791 152.311 310.07 152.493 310.302 152.726C310.535 152.958 310.718 153.237 310.838 153.543C310.959 153.849 311.015 154.177 311.003 154.506C310.991 154.835 310.912 155.158 310.769 155.455C310.627 155.752 310.425 156.016 310.176 156.231L298.757 167.579C298.543 167.812 298.284 168 297.995 168.13C297.707 168.26 297.395 168.33 297.078 168.336V168.336Z" fill="white"></path><path d="M274.241 145.161H252.172C250.005 145.161 248.248 146.917 248.248 149.082V171.135C248.248 173.301 250.005 175.056 252.172 175.056H274.241C276.408 175.056 278.165 173.301 278.165 171.135V149.082C278.165 146.917 276.408 145.161 274.241 145.161Z" fill="#DBE5FF"></path><path d="M80.709 168.31C80.7779 167.243 80.9598 166.187 81.2516 165.158C81.2516 165.158 82.5133 160.997 82.7278 160.367C82.7278 160.367 83.7373 160.178 83.7246 161.413C83.6814 162.346 83.5419 163.271 83.3082 164.175C84.0512 163.462 84.6885 162.647 85.2009 161.754C85.7309 160.67 86.8286 158.526 87.5352 158.249C88.2418 157.971 88.2418 158.728 88.2418 158.728C88.2418 158.728 86.551 162.019 86.1977 162.725C85.8444 163.431 86.1977 163.292 86.1977 163.292C86.1977 163.292 88.4437 159.686 88.9484 159.081C89.4531 158.476 89.8569 158.413 90.2102 158.98C90.2102 158.98 88.5573 161.842 88.3175 162.283C88.0778 162.725 87.0557 163.973 87.5352 164.225C87.5352 164.225 89.655 161.212 90.0588 160.72C90.4625 160.228 90.942 160.216 91.0808 160.846L88.3806 165.158C88.3806 165.158 88.1913 165.461 88.3806 165.499C89.1365 165.063 89.843 164.548 90.4878 163.96C90.6644 163.771 91.2953 163.229 91.6234 163.771C91.6234 163.771 91.7117 163.973 91.1313 164.49C90.5509 165.007 88.2166 167.667 88.2166 167.667C87.0718 168.89 85.6777 169.853 84.1284 170.492C81.6048 171.5 80.8478 170.807 82.2736 171.261L81.6175 170L80.709 168.31Z" fill="#FFCDA9"></path><path d="M84.6198 170.643L80.4685 167.138L78.5254 169.218L82.6135 172.837L84.6198 170.643Z" fill="#FFC400"></path><path d="M65.0497 126.828V122.175H62.3495C62.1279 121.289 61.7794 120.44 61.3148 119.653L63.2201 117.737L59.9268 114.522L58.0216 116.438C57.2361 115.971 56.3857 115.622 55.498 115.404V112.706H50.8673V115.404C49.9788 115.62 49.128 115.969 48.3437 116.438L46.4636 114.522L43.1578 117.813L45.0757 119.729C44.6058 120.513 44.257 121.363 44.041 122.251H41.3408V126.903H44.0158C44.2341 127.791 44.5827 128.64 45.0505 129.425L43.1326 131.329L46.4384 134.62L48.3437 132.716C49.1307 133.18 49.9806 133.529 50.8673 133.75V136.448H55.5232V133.75C56.4091 133.526 57.2587 133.178 58.0468 132.716L59.9521 134.62L63.2453 131.329L61.34 129.425C61.8025 128.638 62.1508 127.789 62.3747 126.903L65.0497 126.828ZM48.4951 124.306C48.5226 123.388 48.8184 122.499 49.3459 121.747C49.8734 120.995 50.6096 120.414 51.4637 120.075C52.3177 119.737 53.2523 119.655 54.1522 119.841C55.052 120.027 55.8777 120.472 56.5274 121.121C57.1771 121.771 57.6224 122.596 57.8084 123.495C57.9944 124.394 57.913 125.328 57.5741 126.181C57.2352 127.035 56.6538 127.771 55.9014 128.298C55.1491 128.825 54.2588 129.12 53.3403 129.148C52.0796 129.099 50.8828 128.58 49.986 127.693C49.0892 126.806 48.5573 125.616 48.4951 124.356V124.306Z" fill="white"></path><path opacity="0.67" d="M53.1895 51.1128H262.09C265.102 51.1128 267.99 52.3084 270.12 54.4365C272.249 56.5646 273.446 59.451 273.446 62.4606V192.835H53.1895V51.1128Z" fill="white"></path><path d="M263.137 170.315H151.355V171.929H263.137V170.315Z" fill="#FFFAFF"></path><path d="M263.137 176.229H151.355V177.842H263.137V176.229Z" fill="#FFFAFF"></path><path d="M263.137 182.129H151.355V183.743H263.137V182.129Z" fill="#FFFAFF"></path><path d="M135.407 139.323V130.497H130.284C129.859 128.832 129.2 127.236 128.328 125.756L131.95 122.137L125.641 115.833L122.07 119.565C120.596 118.685 119.002 118.022 117.338 117.598V112.479H108.506V117.598C106.841 118.02 105.247 118.683 103.774 119.565L100.14 115.946L93.8313 122.251L97.4526 125.869C96.5753 127.347 95.9166 128.944 95.4969 130.61H90.374V139.436H95.4969C95.9166 141.103 96.5753 142.699 97.4526 144.177L93.8313 147.796L100.14 154.037L103.774 150.419C105.247 151.301 106.841 151.963 108.506 152.386V157.391H117.338V152.272C119.002 151.848 120.596 151.186 122.07 150.305L125.691 153.924L132 147.682L128.379 144.064C129.251 142.583 129.909 140.987 130.335 139.323H135.407ZM103.989 134.696C104.041 132.954 104.603 131.265 105.604 129.838C106.606 128.412 108.003 127.309 109.624 126.666C111.245 126.024 113.019 125.869 114.727 126.222C116.435 126.575 118.002 127.42 119.235 128.652C120.468 129.884 121.313 131.45 121.666 133.157C122.019 134.864 121.865 136.636 121.222 138.256C120.579 139.876 119.475 141.272 118.048 142.273C116.62 143.274 114.93 143.835 113.187 143.887C110.769 143.82 108.468 142.831 106.757 141.121C105.046 139.412 104.055 137.112 103.989 134.696V134.696Z" fill="white"></path><g style="mix-blend-mode:multiply" opacity="0.69"><path d="M257.307 89.3799H117.78C115.09 89.3799 112.909 91.5589 112.909 94.2468V161.123C112.909 163.811 115.09 165.99 117.78 165.99H257.307C259.997 165.99 262.178 163.811 262.178 161.123V94.2468C262.178 91.5589 259.997 89.3799 257.307 89.3799Z" fill="#A8C5FF"></path></g><g style="mix-blend-mode:multiply" opacity="0.69"><path d="M178.156 128.568H78.639C75.9491 128.568 73.7686 130.747 73.7686 133.435V179.772C73.7686 182.46 75.9491 184.639 78.639 184.639H178.156C180.845 184.639 183.026 182.46 183.026 179.772V133.435C183.026 130.747 180.845 128.568 178.156 128.568Z" fill="#00049F"></path></g><path d="M186.144 40.332H212.502C214.082 40.332 215.596 40.959 216.713 42.0751C217.83 43.1912 218.458 44.705 218.458 46.2833V53.9999H186.144V40.332Z" fill="#E2ECFA"></path><path d="M53.1895 51.1128H264.512C266.855 51.1128 269.101 52.0427 270.758 53.6979C272.414 55.3531 273.345 57.5981 273.345 59.9389V67.0628H53.1895V51.1128Z" fill="#FEFEFF"></path><path d="M64 58.9832C64.0033 59.578 63.8297 60.1603 63.5014 60.6562C63.173 61.1521 62.7047 61.5393 62.1558 61.7684C61.6069 61.9976 61.0024 62.0584 60.4189 61.9432C59.8353 61.828 59.2993 61.5419 58.8787 61.1213C58.4581 60.7007 58.172 60.1647 58.0568 59.5811C57.9416 58.9976 58.0024 58.3931 58.2316 57.8442C58.4607 57.2953 58.8479 56.827 59.3438 56.4986C59.8397 56.1703 60.422 55.9967 61.0168 56C61.8066 56.0045 62.5628 56.3202 63.1213 56.8787C63.6798 57.4372 63.9955 58.1934 64 58.9832V58.9832Z" fill="#FF4954"></path><path d="M74 58.9832C74.0033 59.578 73.8297 60.1603 73.5014 60.6562C73.173 61.1521 72.7047 61.5393 72.1558 61.7684C71.6069 61.9976 71.0024 62.0584 70.4189 61.9432C69.8353 61.828 69.2993 61.5419 68.8787 61.1213C68.4581 60.7007 68.172 60.1647 68.0568 59.5811C67.9416 58.9976 68.0024 58.3931 68.2316 57.8442C68.4607 57.2953 68.8479 56.827 69.3438 56.4986C69.8397 56.1703 70.422 55.9967 71.0168 56C71.8066 56.0045 72.5628 56.3202 73.1213 56.8787C73.6798 57.4372 73.9955 58.1934 74 58.9832V58.9832Z" fill="#FFD749"></path><path d="M84 58.9832C84.0033 59.578 83.8297 60.1603 83.5014 60.6562C83.173 61.1521 82.7047 61.5393 82.1558 61.7684C81.6069 61.9976 81.0024 62.0584 80.4189 61.9432C79.8353 61.828 79.2993 61.5419 78.8787 61.1213C78.4581 60.7007 78.172 60.1647 78.0568 59.5811C77.9416 58.9976 78.0024 58.3931 78.2316 57.8442C78.4607 57.2953 78.8479 56.827 79.3438 56.4986C79.8397 56.1703 80.422 55.9967 81.0168 56C81.8066 56.0045 82.5628 56.3202 83.1213 56.8787C83.6798 57.4372 83.9955 58.1934 84 58.9832V58.9832Z" fill="#3BBA39"></path><path d="M157.071 37.4951H183.43C185.009 37.4951 186.524 38.1221 187.641 39.2382C188.758 40.3543 189.385 41.868 189.385 43.4464V51.1251H157.071V37.4951Z" fill="#C6D0DE"></path><path d="M123.281 34.9233H155.734C157.314 34.9233 158.829 35.5504 159.945 36.6664C161.062 37.7825 161.69 39.2963 161.69 40.8746V51.1129H123.281V34.9233Z" fill="#E2ECFA"></path><path d="M58.9053 32.0859H122.65C125.167 32.0859 127.58 33.0849 129.36 34.8631C131.139 36.6412 132.139 39.053 132.139 41.5677V51.1125H53.1895V37.7851C53.1928 36.2724 53.7965 34.8228 54.868 33.7544C55.9396 32.686 57.3916 32.0859 58.9053 32.0859V32.0859Z" fill="#B4CCEB"></path><path d="M206.508 79.293H112.909V82.1804H206.508V79.293Z" fill="#1A2258"></path><path d="M150.258 71.4253H112.909V74.3127H150.258V71.4253Z" fill="#1A2258"></path><path d="M172.049 71.4253H165.563V74.3127H172.049V71.4253Z" fill="#1A2258"></path><path d="M188.818 71.4253H182.332V74.3127H188.818V71.4253Z" fill="#1A2258"></path><path d="M205.574 71.4253H199.089V74.3127H205.574V71.4253Z" fill="#1A2258"></path><path d="M222.331 71.4253H215.846V74.3127H222.331V71.4253Z" fill="#1A2258"></path><path d="M239.087 71.4253H232.602V74.3127H239.087V71.4253Z" fill="#1A2258"></path><path d="M255.844 71.4253H249.358V74.3127H255.844V71.4253Z" fill="#1A2258"></path><path d="M255.314 152.159H208.628V154.68H255.314V152.159Z" fill="white"></path><path d="M255.314 157.593H208.628V160.115H255.314V157.593Z" fill="white"></path><path d="M101.2 102.418V93.8688H96.2416C95.8291 92.2619 95.1919 90.721 94.349 89.2919L97.8441 85.7866L91.8002 79.7471L88.305 83.2523C86.8748 82.398 85.3276 81.7567 83.7122 81.3484V76.4058H75.1699V81.3484C73.5545 81.7567 72.0073 82.398 70.577 83.2523L67.0819 79.7471L61.038 85.7866L64.5331 89.3045C63.6901 90.7337 63.053 92.2745 62.6404 93.8814H57.6816V102.43H62.6404C63.053 104.037 63.6901 105.578 64.5331 107.007L61.038 110.512L67.0819 116.552L70.577 113.047C72.0073 113.901 73.5545 114.542 75.1699 114.951V119.906H83.7122V114.951C85.3276 114.542 86.8748 113.901 88.305 113.047L91.8002 116.552L97.8441 110.512L94.349 106.957C95.1919 105.527 95.8291 103.987 96.2416 102.38L101.2 102.418ZM70.8042 97.8784C70.8416 96.1869 71.3755 94.5436 72.3394 93.1526C73.3033 91.7616 74.6549 90.6841 76.2262 90.054C77.7976 89.4239 79.5196 89.2688 81.1783 89.6081C82.8371 89.9473 84.3596 90.766 85.5569 91.9624C86.7541 93.1588 87.5734 94.6802 87.9129 96.3378C88.2524 97.9953 88.0972 99.7161 87.4666 101.286C86.836 102.857 85.7578 104.207 84.3658 105.17C82.9738 106.134 81.3294 106.667 79.6366 106.704C77.3201 106.623 75.1206 105.667 73.4815 104.029C71.8425 102.391 70.8857 100.193 70.8042 97.8784V97.8784Z" fill="#D84B91"></path><path d="M81.9576 133.309V130.182H80.1406C79.9908 129.588 79.7571 129.019 79.4467 128.492L80.7084 127.231L78.4877 125.025L77.2259 126.286C76.7016 125.977 76.1367 125.744 75.5478 125.592V123.776H72.4059V125.592C71.817 125.744 71.2521 125.977 70.7278 126.286L69.466 125.025L67.2453 127.231L68.507 128.492C68.1966 129.019 67.9629 129.588 67.8131 130.182H65.9961V133.309H67.8131C67.9622 133.898 68.196 134.463 68.507 134.985L67.2453 136.246L69.4408 138.478L70.7025 137.217C71.2243 137.531 71.7899 137.764 72.3807 137.911V139.739H75.5604V137.911C76.1512 137.764 76.7168 137.531 77.2386 137.217L78.5003 138.478L80.7211 136.259L79.4593 134.998C79.7703 134.476 80.0041 133.911 80.1533 133.321L81.9576 133.309ZM70.8035 131.644C70.821 131.024 71.02 130.422 71.376 129.913C71.732 129.404 72.2293 129.011 72.8066 128.781C73.3839 128.552 74.0157 128.496 74.6242 128.622C75.2326 128.747 75.791 129.048 76.2303 129.487C76.6696 129.926 76.9705 130.484 77.096 131.092C77.2215 131.7 77.166 132.331 76.9364 132.908C76.7068 133.485 76.3131 133.982 75.8039 134.338C75.2948 134.693 74.6925 134.892 74.0715 134.91C73.2138 134.882 72.3989 134.528 71.7921 133.922C71.1852 133.316 70.8318 132.501 70.8035 131.644Z" fill="#C14DFF"></path><path d="M366.427 156.61H331.589V191.422H366.427V156.61Z" fill="#C14DFF"></path><path d="M360.445 162.586H337.569V185.446H360.445V162.586Z" fill="#EA8BFF"></path><path d="M352.71 170.315H345.304V177.717H352.71V170.315Z" fill="#FFA5FF"></path><path d="M141.412 222.868L116.656 247.606L148.92 234.039C147.084 229.909 144.544 226.129 141.412 222.868Z" fill="#C14DFF"></path><path d="M115.938 202.594V244.745L145.766 214.938C137.739 207.209 127.083 202.799 115.938 202.594V202.594Z" fill="#DC0063"></path><path d="M113.414 251.326C113.331 251.339 113.245 251.339 113.162 251.326V251.326L113.01 251.212H112.947C112.894 251.146 112.847 251.074 112.809 250.998V250.998C112.789 250.902 112.789 250.804 112.809 250.708V250.708V211.772C105.193 211.92 97.7882 214.302 91.5167 218.622C85.2453 222.943 80.3836 229.01 77.5368 236.071C74.6901 243.131 73.9838 250.872 75.506 258.33C77.0282 265.789 80.7117 272.635 86.0979 278.017C91.4842 283.4 98.3355 287.08 105.799 288.602C113.263 290.123 121.009 289.417 128.075 286.572C135.14 283.727 141.212 278.869 145.536 272.602C149.859 266.335 152.243 258.936 152.391 251.326H113.414Z" fill="#69D2FF"></path><path d="M160.554 233.762L128.177 247.367H163.292C163.207 242.704 162.28 238.095 160.554 233.762Z" fill="#AABEE8"></path><path d="M151.419 213.803C151.302 213.804 151.186 213.78 151.079 213.732C150.972 213.684 150.877 213.614 150.8 213.525C135.571 196.163 112.531 198.244 112.291 198.256C112.185 198.268 112.078 198.259 111.977 198.23C111.875 198.2 111.78 198.15 111.697 198.083C111.615 198.016 111.547 197.933 111.497 197.84C111.447 197.746 111.417 197.643 111.408 197.537C111.395 197.43 111.405 197.322 111.435 197.219C111.465 197.115 111.516 197.019 111.584 196.936C111.653 196.852 111.737 196.783 111.832 196.733C111.928 196.682 112.032 196.652 112.139 196.642C112.379 196.642 136.239 194.448 152.024 212.466C152.095 212.545 152.149 212.637 152.184 212.737C152.219 212.838 152.233 212.944 152.226 213.049C152.219 213.155 152.191 213.259 152.143 213.353C152.095 213.448 152.029 213.532 151.949 213.601C151.804 213.733 151.614 213.805 151.419 213.803V213.803Z" fill="#11CFFF"></path><path d="M112.266 200.261C112.053 200.261 111.848 200.178 111.695 200.03C111.541 199.882 111.452 199.68 111.446 199.467L111.345 194.801C111.34 194.692 111.357 194.583 111.395 194.481C111.433 194.379 111.492 194.285 111.567 194.206C111.643 194.127 111.734 194.064 111.834 194.021C111.935 193.979 112.043 193.957 112.152 193.957C112.368 193.953 112.576 194.035 112.731 194.183C112.887 194.332 112.978 194.536 112.985 194.751L113.086 199.416C113.089 199.631 113.008 199.839 112.859 199.995C112.71 200.151 112.506 200.242 112.291 200.248L112.266 200.261Z" fill="#11CFFF"></path><path d="M149.905 215.505C149.788 215.506 149.672 215.482 149.565 215.434C149.458 215.386 149.363 215.316 149.286 215.228C149.147 215.063 149.079 214.851 149.095 214.636C149.112 214.421 149.212 214.222 149.375 214.08L152.832 211.105C152.915 211.035 153.011 210.982 153.114 210.95C153.217 210.917 153.326 210.905 153.433 210.915C153.541 210.924 153.646 210.955 153.742 211.004C153.838 211.054 153.923 211.123 153.993 211.205C154.062 211.288 154.115 211.384 154.148 211.487C154.18 211.59 154.192 211.699 154.183 211.806C154.173 211.914 154.143 212.019 154.093 212.115C154.043 212.211 153.975 212.296 153.892 212.365L150.435 215.354C150.28 215.463 150.093 215.516 149.905 215.505V215.505Z" fill="#11CFFF"></path><path d="M386.956 179.482H323.148C321.761 179.482 320.637 180.605 320.637 181.991V215.417C320.637 216.802 321.761 217.926 323.148 217.926H386.956C388.343 217.926 389.467 216.802 389.467 215.417V181.991C389.467 180.605 388.343 179.482 386.956 179.482Z" fill="white"></path><path d="M321.923 217.031L352.079 193.868C352.939 193.222 353.984 192.868 355.059 192.856C356.135 192.845 357.187 193.177 358.06 193.805L388.671 216.501C388.346 216.935 387.926 217.288 387.442 217.533C386.959 217.778 386.425 217.908 385.882 217.913H324.232C323.381 217.909 322.56 217.595 321.923 217.031V217.031Z" fill="#F5F5F5"></path><g style="mix-blend-mode:multiply" opacity="0.39"><path d="M321.923 180.452L352.206 205.455C353.046 206.153 354.104 206.534 355.196 206.534C356.288 206.534 357.346 206.153 358.186 205.455L388.658 180.969C388.35 180.509 387.936 180.129 387.451 179.862C386.966 179.594 386.424 179.446 385.87 179.431H324.232C323.359 179.462 322.532 179.828 321.923 180.452V180.452Z" fill="#CDCDCD"></path></g><path d="M321.923 180.377L352.079 203.552C352.94 204.202 353.99 204.554 355.07 204.554C356.149 204.554 357.199 204.202 358.06 203.552L388.671 180.856C388.347 180.42 387.927 180.065 387.443 179.818C386.96 179.571 386.426 179.438 385.882 179.431H324.232C323.372 179.453 322.551 179.789 321.923 180.377V180.377Z" fill="#F5F5F5"></path><path d="M396.567 187.364C400.928 183.006 400.928 175.941 396.567 171.583C392.206 167.225 385.136 167.225 380.775 171.583C376.414 175.941 376.414 183.006 380.775 187.364C385.136 191.722 392.206 191.722 396.567 187.364Z" fill="#DC0063"></path><path d="M396.949 179.482C396.951 181.121 396.467 182.725 395.557 184.089C394.647 185.453 393.353 186.517 391.837 187.145C390.322 187.774 388.654 187.939 387.045 187.62C385.436 187.3 383.957 186.511 382.797 185.352C381.637 184.193 380.847 182.715 380.528 181.107C380.208 179.499 380.374 177.833 381.003 176.318C381.632 174.804 382.696 173.511 384.061 172.601C385.426 171.692 387.031 171.208 388.672 171.21C390.867 171.21 392.972 172.082 394.525 173.633C396.077 175.184 396.949 177.288 396.949 179.482V179.482Z" fill="#BB111A"></path><path d="M389.682 178.477C390.138 178.494 390.54 178.626 390.889 178.875C391.245 179.124 391.519 179.451 391.71 179.858C391.9 180.256 391.996 180.683 391.996 181.139C391.996 181.744 391.859 182.275 391.585 182.731C391.312 183.179 390.926 183.523 390.428 183.764C389.931 184.004 389.35 184.124 388.687 184.124C388.388 184.124 388.09 184.087 387.791 184.012C387.493 183.938 387.231 183.838 387.008 183.714C386.701 183.548 386.547 183.324 386.547 183.042C386.547 182.843 386.618 182.661 386.759 182.495C386.9 182.329 387.07 182.246 387.269 182.246C387.435 182.246 387.613 182.308 387.804 182.433C388.16 182.706 388.554 182.843 388.985 182.843C389.243 182.843 389.487 182.781 389.719 182.657C389.952 182.524 390.138 182.337 390.279 182.097C390.428 181.848 390.503 181.566 390.503 181.251C390.503 180.803 390.366 180.455 390.093 180.206C389.827 179.957 389.504 179.833 389.122 179.833C388.956 179.833 388.811 179.849 388.687 179.883C388.563 179.916 388.488 179.936 388.463 179.945C388.247 180.011 388.069 180.044 387.928 180.044C387.746 180.044 387.601 179.982 387.493 179.858C387.385 179.725 387.331 179.563 387.331 179.373C387.331 179.256 387.352 179.153 387.393 179.062C387.435 178.97 387.505 178.871 387.605 178.763L389.533 176.661H387.07C386.871 176.661 386.705 176.594 386.572 176.462C386.44 176.329 386.373 176.163 386.373 175.964C386.373 175.773 386.44 175.616 386.572 175.491C386.705 175.359 386.871 175.292 387.07 175.292H390.876C391.125 175.292 391.316 175.363 391.448 175.504C391.581 175.637 391.647 175.815 391.647 176.039C391.647 176.238 391.548 176.437 391.349 176.636L389.682 178.477Z" fill="#FFFFF8"></path><defs><linearGradient id="paint0_linear" x1="39.5242" y1="284.462" x2="466.066" y2="-30.9489" gradientUnits="userSpaceOnUse"><stop stop-color="#DC0063"></stop><stop offset="0.22" stop-color="#A91975"></stop><stop offset="0.48" stop-color="#753288"></stop><stop offset="0.71" stop-color="#4F4496"></stop><stop offset="0.89" stop-color="#38509F"></stop><stop offset="1" stop-color="#2F54A2"></stop></linearGradient><linearGradient id="paint1_linear" x1="2095.12" y1="-254.192" x2="2809.83" y2="4921.62" gradientUnits="userSpaceOnUse"><stop stop-color="#DC0063"></stop><stop offset="0.22" stop-color="#A91975"></stop><stop offset="0.48" stop-color="#753288"></stop><stop offset="0.71" stop-color="#4F4496"></stop><stop offset="0.89" stop-color="#38509F"></stop><stop offset="1" stop-color="#2F54A2"></stop></linearGradient></defs></svg>